<?xml version="1.0" encoding="UTF-8" standalone="no"?>
<!DOCTYPE svg PUBLIC "-//W3C//DTD SVG 1.1//EN"
 "http://www.w3.org/Graphics/SVG/1.1/DTD/svg11.dtd">
<!-- Generated by graphviz version 2.43.0 (0)
 -->
<!-- Title: moewller Pages: 1 -->
<svg width="120pt" height="188pt"
 viewBox="0.00 0.00 119.79 188.00" xmlns="http://www.w3.org/2000/svg" xmlns:xlink="http://www.w3.org/1999/xlink">
<g id="graph0" class="graph" transform="scale(1 1) rotate(0) translate(4 184)">
<title>moewller</title>
<polygon fill="white" stroke="transparent" points="-4,4 -4,-184 115.79,-184 115.79,4 -4,4"/>
<!-- model -->
<g id="node1" class="node">
<title>model</title>
<ellipse fill="none" stroke="black" cx="55.9" cy="-162" rx="38.99" ry="18"/>
<text text-anchor="middle" x="55.9" y="-158.3" font-family="Times,serif" font-size="14.00">model</text>
</g>
<!-- view -->
<g id="node2" class="node">
<title>view</title>
<ellipse fill="none" stroke="black" cx="55.9" cy="-90" rx="32.49" ry="18"/>
<text text-anchor="middle" x="55.9" y="-86.3" font-family="Times,serif" font-size="14.00">view</text>
</g>
<!-- model&#45;&gt;view -->
<g id="edge1" class="edge">
<title>model&#45;&gt;view</title>
<path fill="none" stroke="black" d="M55.9,-143.7C55.9,-135.98 55.9,-126.71 55.9,-118.11"/>
<polygon fill="black" stroke="black" points="59.4,-118.1 55.9,-108.1 52.4,-118.1 59.4,-118.1"/>
</g>
<!-- controller -->
<g id="node3" class="node">
<title>controller</title>
<ellipse fill="none" stroke="black" cx="55.9" cy="-18" rx="55.79" ry="18"/>
<text text-anchor="middle" x="55.9" y="-14.3" font-family="Times,serif" font-size="14.00">controller</text>
</g>
<!-- view&#45;&gt;controller -->
<g id="edge2" class="edge">
<title>view&#45;&gt;controller</title>
<path fill="none" stroke="black" d="M55.9,-71.7C55.9,-63.98 55.9,-54.71 55.9,-46.11"/>
<polygon fill="black" stroke="black" points="59.4,-46.1 55.9,-36.1 52.4,-46.1 59.4,-46.1"/>
</g>
</g>
</svg>
